<svg xmlns="http://www.w3.org/2000/svg"  viewBox="0 0 100 100" width="100px" height="100px"><path fill="#60be92" d="M39.375,81.375c0,0-1.125-1.625,2.25-6.625C42.75,71.5,42.5,68.625,42,67.625 c0,0-3.5-4.375-3.5-7.25s2.875-5.5,2.875-5.5s2.5-2.875,0.875-6.125s-1.25-7.5,0.125-11s2.125-3.625,2.125-3.625l5.125-0.625 c0,0-4.375,2.875-5,7.375s1.625,7.25,1.625,7.25s1.625,2.5,0.25,4.875s-4.375,4.375-3.625,7.875S46.125,66.5,46.5,68.5 s0.25,4.25-0.875,6s-3,4.5-1.625,7.75C41.125,82.75,39.375,81.375,39.375,81.375z"/><path fill="#60be92" d="M62.875,81.375c0,0,1.125-1.625-2.25-6.625c-1.125-3.25-0.875-6.125-0.375-7.125 c0,0,3.5-4.375,3.5-7.25s-2.875-5.5-2.875-5.5s-2.625-4-1-7.25s2.5-6,1.125-9.5s-3.25-4-3.25-4L52.625,33.5 c0,0,4.375,2.875,5,7.375S56,48.125,56,48.125s-1.625,2.5-0.25,4.875s4.375,4.375,3.625,7.875S56.125,66.5,55.75,68.5 s-0.25,4.25,0.875,6s3,4.5,1.625,7.75C61.125,82.75,62.875,81.375,62.875,81.375z"/><polygon fill="#60be92" points="75,72 72,71 70,76 73,74"/><polygon fill="#60be92" points="26,72 29,71 31,76 28,74"/><path fill="#60be92" d="M74,53c0,0,8,5,10,3c1,4-1,6-1,6c-2.33-0.22-7.277-2.185-12-4L74,53z"/><path fill="#60be92" d="M72,61c0,0,7,6,9,4c-1,3-3,5-3,5l-3-2L72,61z"/><path fill="#60be92" d="M73,44c-1.832-3.562,9,6,12,2c1,4,0,6,0,6c-4.176,0.162-7.375-1.511-12-4V44z"/><path fill="#60be92" d="M28,53c0,0-8,5-10,3c-1,4,1,6,1,6c2.33-0.22,7.277-2.185,12-4L28,53z"/><path fill="#60be92" d="M30,61c0,0-7,6-9,4c1,3,3,5,3,5l3-2L30,61z"/><path fill="#60be92" d="M29,44c1.832-3.562-9,6-12,2c-1,4,0,6,0,6c4.176,0.162,7.375-1.511,12-4V44z"/><path fill="#60be92" d="M54.01,28.99c0.23-0.17,3.69-2.71,7.33-3.8c0.02-0.01,0.04-0.01,0.05-0.02 c0.22-0.03,0.43-0.06,0.61-0.09c-0.01,1.19-0.17,2.05-0.37,2.66l-0.62,1.25L61,29c0,0,1,1,6,0c-0.02,0.02-0.03,0.03-0.04,0.05 c-0.77,0.79-1.54,2.15-2.18,3.53c-0.68,1.27-1.34,2.76-1.73,4.26c-0.01,0.04-0.02,0.07-0.03,0.09C63.01,36.98,63,37,63,37 c-0.12-0.08-0.24-0.16-0.36-0.22C63.2,37.45,63.6,38.19,64,39c2.21,4.48,1.7,6.11,1,8c-0.36,0.97-3.52,4.48,2,10 c1.23,1.23,1.45,2.81,1.21,4.3c-0.01,0.11-0.03,0.22-0.05,0.32c0.31,0.34,0.66,0.64,1.02,0.92c0,0,0,0,0.01,0.01 c2.04,2.27,3.9,2.46,4.99,2.28c0.01,0,0.01,0,0.01,0c0.33,0.08,0.58,0.13,0.7,0.15c0.04-0.13,0.08-0.25,0.11-0.38 c0.41-1.62,0.73-3.35,0.88-5.16c0.14-1.61,0.14-3.28-0.01-5.01c-0.04-0.47-0.1-0.95-0.17-1.43c-0.21-1.46-0.48-2.8-0.81-4.03 C72.12,38.41,65.7,36,65.7,36l8,1c0,0,0-3,3-4c1,4,3,10,7,11c0,0,0.24,0.87,0.46,2.36c0.33,2.24,0.63,5.86,0.02,9.99 c-0.02,0.11-0.03,0.22-0.05,0.33c0,0.01-0.01,0.03-0.01,0.04c-1.09,4.7-3.16,9.03-5.98,12.76c-1.81,2.4-3.94,4.56-6.32,6.4 l-0.01,0.01c-1.04,0.69-2.15,1.35-3.36,1.98c0,0,2.08-2.44,4.05-6.5c0.07-0.16,0.15-0.31,0.23-0.48c0.48-1.02,0.94-2.14,1.36-3.34 c0.17-0.45,0.32-0.91,0.47-1.38c-0.16,0.37-0.35,0.81-0.59,1.31C73.49,68.51,72.83,69.75,72,71c-0.75,0-3.2-1.13-5.21-2.95 c-0.02-0.03-0.04-0.05-0.07-0.08c-0.41-0.45-0.82-0.96-1.2-1.54C65.7,66.28,65.86,66.14,66,66c0.56-0.56,1.74-2.36,2.16-4.38 C67.7,61.15,67.3,60.61,67,60c-1,5-1,5-2,6c0.12,0.18,0.25,0.36,0.39,0.54C64.36,67.42,63,68.53,63,71c0,3,5,7,5,7 c-1.26,1.01-2.7,1.82-4.21,2.48c-0.22,0.1-0.44,0.19-0.66,0.27c-0.25,0.11-0.51,0.2-0.76,0.29c-0.01,0-0.03,0.01-0.04,0.01 c-0.31,0.11-0.62,0.22-0.93,0.31c-0.16,0.05-0.31,0.1-0.47,0.15c-0.16,0.05-0.32,0.1-0.48,0.14c-0.21,0.06-0.43,0.12-0.64,0.18 c-0.48,0.13-0.97,0.25-1.47,0.35c-0.33,0.07-0.66,0.14-0.98,0.2s-0.64,0.11-0.96,0.16c-0.6,0.11-1.21,0.19-1.83,0.25 s-1.24,0.13-1.87,0.16c-0.27,0.02-0.55,0.03-0.82,0.04H51.5C51.67,83,51.83,83,52,83c18.78,0,34-15.22,34-34 c0-18.78-15.22-34-34-34c-0.17,0-0.33,0-0.5,0.01C34.68,15.25,20.82,27.7,18.38,43.89c-0.1,0.68-0.18,1.36-0.24,2.05 c0.2-1.23,0.39-1.94,0.39-1.94c3.94-0.98,5.94-6.82,6.95-10.81C28,34.33,28,37,28,37l0.52-0.07c0.01,0.05,0.01,0.07,0.01,0.07 l7.27-0.91c-1.1,0.5-6.51,3.42-8.99,12.88C26.48,50.2,26.21,51.54,26,53c-0.07,0.48-0.13,0.96-0.17,1.43 c-0.15,1.72-0.15,3.4-0.01,5c0.16,1.91,0.5,3.72,0.95,5.41C26.29,64.95,26,65,26,65s0.39,1.17,1.17,2.78v0.01 c0.46,0.93,1.04,2.02,1.77,3.11c-0.62,0.34,1.47,4.49,3.49,5.91c0,0,0,0.01,0.01,0.01c0.34,0.24,0.71,0.48,1.06,0.71 c0,0.01,0.01,0.01,0.01,0.01c0.2,0.13,0.4,0.26,0.6,0.38C34.86,77.33,38,73.75,38,71c0-2.92-0.59-3.94-1.61-4.91 c-0.03-0.03-0.06-0.06-0.09-0.09c-0.29-0.29-0.79-0.77-1.28-1.43c0.25,0.7,0.5,0.95,0.98,1.43c-1.75,2.62-5.03,4.48-6.49,4.91 c-0.84-1.8-1.65-3.89-2.25-6.21c1.78-0.5,4.98-1.72,6.51-4.28c0.11-1.04,0.56-2.18,1.53-3.42c4.7-6,3.18-7.74,2-10 c-1.05-2-1.81-4.67,0.7-9c0.54-0.93,0.92-1.7,1.56-2.34c-0.19,0.1-0.38,0.22-0.56,0.34c0,0-0.02-0.05-0.06-0.14 c-0.32-0.79-1.99-4.71-3.73-6.62C35.15,29.16,35.08,29.08,35,29c5,1,6,0,6,0l-2-4c0,0,5,0,9,4"/><polygon fill="#fff" points="55,30 54,25 57,22 53,22 50.875,17.625 48,22 44,22 48,26 47,30"/><path fill="#1f212b" d="M51,51.5c-3.86,0-7-4.038-7-9s3.14-9,7-9s7,4.038,7,9S54.86,51.5,51,51.5z M51,34.5 c-3.309,0-6,3.589-6,8s2.691,8,6,8s6-3.589,6-8S54.309,34.5,51,34.5z"/><path fill="#1f212b" d="M51,84c-19.299,0-35-15.701-35-35s15.701-35,35-35s35,15.701,35,35S70.299,84,51,84z M51,16 c-18.196,0-33,14.804-33,33s14.804,33,33,33s33-14.804,33-33S69.196,16,51,16z"/><path fill="#1f212b" d="M52.5,42c-0.276,0-0.5-0.224-0.5-0.5c0-0.035,0.051-3.5,4.5-3.5c0.276,0,0.5,0.224,0.5,0.5 S56.776,39,56.5,39c-3.46,0-3.5,2.398-3.5,2.5C53,41.776,52.776,42,52.5,42z"/><path fill="#1f212b" d="M49.5,42c-0.275,0-0.499-0.223-0.5-0.498c0-0.015-0.019-1.519-0.961-2.25 c-0.564-0.438-1.377-0.527-2.418-0.267c-0.269,0.066-0.54-0.096-0.606-0.364c-0.067-0.268,0.096-0.539,0.364-0.606 c1.357-0.34,2.461-0.188,3.279,0.452C49.985,39.502,50,41.419,50,41.5c0,0.275-0.223,0.499-0.499,0.5C49.501,42,49.5,42,49.5,42z"/><ellipse cx="47" cy="41" fill="#1f212b" rx="2" ry="1"/><ellipse cx="55" cy="41" fill="#1f212b" rx="2" ry="1"/><path fill="#1f212b" d="M51,45.497c-0.598,0-1.196-0.193-1.777-0.581c-0.229-0.153-0.292-0.463-0.139-0.693 c0.152-0.23,0.462-0.292,0.693-0.139c0.834,0.556,1.611,0.556,2.445,0c0.23-0.153,0.54-0.091,0.693,0.139 c0.153,0.23,0.091,0.54-0.139,0.693C52.196,45.304,51.598,45.497,51,45.497z"/><path fill="#1f212b" d="M51.083,49c-2.373,0-3-1.635-3-2.5c0-0.276,0.224-0.5,0.5-0.5h5c0.276,0,0.5,0.224,0.5,0.5 C54.083,47.365,53.457,49,51.083,49z M49.195,47c0.18,0.439,0.653,1,1.889,1c1.237,0,1.709-0.563,1.889-1H49.195z"/><path fill="#1f212b" d="M44.657,56.125c-0.124,0-0.248-0.046-0.345-0.138c-0.2-0.191-0.207-0.508-0.017-0.707l0.104-0.107 c1.811-1.811,2.408-3.931,1.755-6.157c-0.078-0.265,0.074-0.542,0.339-0.621c0.266-0.076,0.543,0.075,0.621,0.339 c0.751,2.562,0.048,5.09-1.981,7.119l-0.114,0.116C44.921,56.073,44.789,56.125,44.657,56.125z"/><path fill="#1f212b" d="M45.799,74.875c-0.071,0-0.144-0.016-0.213-0.048c-0.25-0.118-0.356-0.416-0.239-0.666 c1.411-2.988,1.258-5.561-0.467-7.861c-2.556-3.407-3.233-6.312-2.072-8.881c0.114-0.252,0.41-0.36,0.662-0.25 c0.251,0.114,0.363,0.41,0.25,0.662c-0.998,2.206-0.356,4.78,1.96,7.869c1.969,2.625,2.156,5.532,0.572,8.889 C46.166,74.77,45.986,74.875,45.799,74.875z"/><path fill="#1f212b" d="M44.28,82.5c-0.128,0-0.256-0.049-0.354-0.146c-0.023-0.022-2.265-2.328-0.063-5.631 c0.152-0.229,0.463-0.293,0.693-0.139c0.23,0.153,0.292,0.464,0.139,0.693c-1.752,2.629-0.08,4.352-0.063,4.369 c0.195,0.195,0.195,0.512,0,0.707C44.536,82.451,44.408,82.5,44.28,82.5z"/><path fill="#1f212b" d="M41.5,46c-0.195,0-0.38-0.115-0.46-0.306c-1.067-2.528-0.069-9.422,4.161-12.594 c0.22-0.166,0.535-0.122,0.7,0.1c0.166,0.221,0.121,0.534-0.1,0.7c-3.797,2.848-4.775,9.188-3.839,11.406 c0.107,0.254-0.012,0.548-0.266,0.655C41.631,45.987,41.565,46,41.5,46z"/><path fill="#1f212b" d="M41.349,66.875c-0.167,0-0.329-0.083-0.424-0.234c-0.176-0.28-0.364-0.566-0.561-0.863 c-0.156-0.233-0.311-0.461-0.464-0.684c-1.84-2.688-3.429-5.009,0.489-9.906c2.746-3.431,2.145-5.368,1.314-6.671 c-0.148-0.233-0.08-0.542,0.153-0.69c0.231-0.149,0.542-0.08,0.69,0.153c0.93,1.461,1.8,3.863-1.376,7.833 c-3.456,4.319-2.258,6.068-0.445,8.717c0.155,0.226,0.313,0.457,0.471,0.693c0.203,0.305,0.396,0.599,0.577,0.887 c0.146,0.234,0.076,0.543-0.158,0.689C41.532,66.851,41.44,66.875,41.349,66.875z"/><path fill="#1f212b" d="M39.54,81.015c-0.143,0-0.289-0.057-0.393-0.161c-0.302-0.302-1.035-1.673,2.215-6.628 c0.711-1.43,0.662-3.648,0.638-4.715c-0.006-0.275,0.213-0.505,0.489-0.511c0.304-0.001,0.505,0.213,0.511,0.489 c0.025,1.146,0.078,3.532-0.773,5.234c-2.86,4.367-2.333,5.468-2.328,5.479c0.195,0.195,0.173,0.484-0.022,0.679 C39.786,80.972,39.664,81.015,39.54,81.015z"/><path fill="#1f212b" d="M51,84c-11.233,0-17.384-5.019-17.64-5.231l-0.84-0.7l0.773-0.775C34.324,76.26,37,73.115,37,71 c0-2.349-0.646-3.229-1.271-4.082l-0.249-0.344c-0.073-0.104-0.176-0.236-0.298-0.395c-1.283-1.653-4.689-6.048-0.969-10.797 c3.862-4.928,3.417-5.724,2.533-7.309c-0.108-0.194-0.221-0.396-0.333-0.611c-1.115-2.134-2.04-5.196,0.722-9.964l2.033-3.054 l1.664,1.109l-2,3c-2.22,3.837-1.625,6.108-0.647,7.982c0.104,0.198,0.207,0.383,0.307,0.562c1.375,2.463,1.535,4.107-2.705,9.519 c-2.431,3.103-0.872,5.956,0.975,8.338c0.146,0.188,0.268,0.346,0.355,0.471l0.224,0.31C38.042,66.689,39,67.997,39,71 c0,2.523-2.229,5.413-3.49,6.845C37.499,79.133,42.844,82,51,82c3.862,0,11.658-1.007,16.375-4.781l1.249,1.563 C62.284,83.854,52.136,84,51,84z"/><path fill="#1f212b" d="M50.541,84c-1.136,0-11.284-0.146-17.625-5.219l1.249-1.563C38.883,80.993,46.679,82,50.541,82 c8.154,0,13.5-2.866,15.49-4.155c-1.261-1.432-3.49-4.321-3.49-6.845c0-3.003,0.958-4.311,1.659-5.265l0.224-0.31 c0.087-0.125,0.209-0.283,0.355-0.471c1.847-2.382,3.406-5.235,0.975-8.338c-4.239-5.411-4.079-7.056-2.705-9.519 c0.1-0.178,0.203-0.364,0.307-0.562c0.974-1.865,1.567-4.123-0.648-7.979l-1.5-1.947l1.584-1.221l1.614,2.109 c2.762,4.768,1.837,7.83,0.722,9.964c-0.112,0.215-0.225,0.417-0.333,0.61c-0.885,1.585-1.329,2.381,2.532,7.31 c3.721,4.749,0.314,9.144-0.969,10.797c-0.122,0.158-0.225,0.29-0.298,0.395l-0.249,0.344c-0.625,0.853-1.271,1.733-1.271,4.082 c0,2.121,2.676,5.262,3.707,6.293l0.774,0.774l-0.841,0.701C67.925,78.981,61.774,84,50.541,84z"/><path fill="#1f212b" d="M27.249,65.619c-0.2,0-0.385-0.016-0.551-0.046c-0.543-0.099-0.904-0.619-0.806-1.162 c0.099-0.544,0.621-0.902,1.162-0.807c0.528,0.094,3.164-0.292,5.4-3.883c0.292-0.47,0.911-0.612,1.377-0.32 c0.469,0.292,0.612,0.908,0.321,1.377C31.89,64.411,28.988,65.619,27.249,65.619z"/><path fill="#1f212b" d="M29.211,72.978l-0.422-1.955L29,72l-0.215-0.977c0.163-0.037,4.016-0.949,6.809-5.543l1.709,1.039 C34.042,71.882,29.407,72.936,29.211,72.978z"/><path fill="#1f212b" d="M33.25,78.875c-0.283,0-0.564-0.119-0.762-0.353c-0.39-0.458-9.519-11.382-7.478-25.664 c1.091-7.635,4.18-12.138,6.909-14.705l-3.702,0.823c-0.296,0.066-0.606-0.006-0.842-0.196C27.138,38.59,27,38.303,27,38 c0-0.025-0.033-2.304-1.363-3.496c-1.739,6.23-4.164,9.659-7.395,10.466c-0.534,0.136-1.079-0.191-1.213-0.728 c-0.134-0.536,0.192-1.079,0.728-1.213c1.803-0.451,4.354-2.599,6.272-10.272c0.067-0.27,0.245-0.5,0.489-0.634 c0.245-0.135,0.534-0.161,0.798-0.072c2.504,0.835,3.306,3.243,3.563,4.729l7.904-1.756c0.517-0.113,1.039,0.195,1.181,0.709 c0.142,0.513-0.143,1.047-0.647,1.216c-0.34,0.117-8.447,3.035-10.327,16.193c-1.914,13.398,6.933,23.98,7.022,24.086 c0.358,0.42,0.307,1.052-0.114,1.409C33.71,78.797,33.479,78.875,33.25,78.875z"/><path fill="#1f212b" d="M63,38c-0.209,0-0.415-0.065-0.588-0.191c-10.346-7.525-22.814-0.995-22.938-0.928 c-0.251,0.134-0.548,0.155-0.814,0.059c-0.268-0.097-0.481-0.304-0.587-0.568c-0.02-0.048-1.948-4.834-3.779-6.665 c-0.286-0.286-0.372-0.716-0.217-1.09C34.231,28.244,34.596,28,35,28h4.382l-1.276-2.553c-0.155-0.31-0.138-0.678,0.044-0.973 C38.332,24.18,38.653,24,39,24c0.166,0,3.699,0.03,7.307,2.364l0.107-0.536l-3.121-3.121c-0.286-0.286-0.372-0.716-0.217-1.09 C43.231,21.244,43.596,21,44,21h4.051l2.054-4.116c0.339-0.679,1.451-0.679,1.79,0L53.949,21H58c0.404,0,0.769,0.244,0.924,0.617 c0.155,0.374,0.069,0.804-0.217,1.09l-3.121,3.121l0.107,0.536C59.301,24.03,62.834,24,63,24c0.347,0,0.668,0.18,0.851,0.474 c0.182,0.295,0.199,0.663,0.044,0.973L62.618,28H67c0.404,0,0.769,0.244,0.924,0.617c0.155,0.374,0.069,0.804-0.217,1.09 c-1.504,1.504-3.223,6.002-3.758,7.609c-0.101,0.302-0.34,0.539-0.644,0.636C63.206,37.984,63.103,38,63,38z M50.91,32.137 c3.637,0,7.685,0.817,11.584,3.308c0.521-1.395,1.452-3.687,2.521-5.445H61c-0.347,0-0.668-0.18-0.851-0.474 c-0.182-0.295-0.199-0.663-0.044-0.973l1.165-2.33c-1.454,0.299-3.61,1-5.618,2.642c-0.271,0.222-0.639,0.286-0.97,0.167 c-0.33-0.118-0.575-0.401-0.644-0.745l-0.52-2.59c-0.066-0.328,0.037-0.667,0.273-0.904L55.586,23H53.33 c-0.379,0-0.726-0.214-0.895-0.554L51,19.57l-1.435,2.876C49.396,22.786,49.049,23,48.67,23h-2.256l1.793,1.793 c0.237,0.236,0.339,0.576,0.273,0.904l-0.52,2.59c-0.069,0.344-0.313,0.626-0.644,0.745c-0.33,0.119-0.698,0.055-0.97-0.167 c-2.007-1.641-4.164-2.342-5.618-2.642l1.165,2.33c0.155,0.31,0.138,0.678-0.044,0.973C41.668,29.82,41.347,30,41,30h-3.947 c1.046,1.582,1.953,3.501,2.457,4.643C41.391,33.795,45.732,32.137,50.91,32.137z M52.56,30h-3.12 c-0.431,0-0.813-0.275-0.949-0.684c-0.136-0.409,0.004-0.858,0.349-1.116l1.56-1.17c0.355-0.267,0.845-0.267,1.2,0l1.56,1.17 c0.344,0.258,0.485,0.708,0.349,1.116C53.373,29.725,52.991,30,52.56,30z"/><path fill="#1f212b" d="M21.375,47.041c-0.212,0-0.409-0.136-0.477-0.349c-0.083-0.263,0.062-0.544,0.325-0.628l0.117-0.038 c1.3-0.434,2.342-1.003,3.35-1.555c1.24-0.679,2.412-1.319,3.754-1.469c0.28-0.029,0.522,0.167,0.552,0.442 c0.03,0.274-0.167,0.521-0.442,0.552c-1.146,0.127-2.184,0.695-3.385,1.352c-0.998,0.545-2.128,1.164-3.512,1.625l-0.132,0.043 C21.476,47.033,21.425,47.041,21.375,47.041z"/><path fill="#1f212b" d="M19.25,47.359c-0.008,0-0.016,0-0.023,0c-1.553-0.071-2.271-0.813-2.347-0.897 c-0.186-0.205-0.17-0.521,0.034-0.707c0.202-0.184,0.516-0.17,0.702,0.029c0.028,0.029,0.528,0.524,1.657,0.576 c0.276,0.013,0.489,0.247,0.477,0.522C19.737,47.15,19.516,47.359,19.25,47.359z"/><path fill="#1f212b" d="M23.75,51.041c-0.182,0-0.358-0.1-0.446-0.273c-0.125-0.246-0.028-0.547,0.218-0.672 c0.409-0.208,0.796-0.42,1.169-0.625c0.684-0.375,1.331-0.728,1.994-0.999c0.255-0.105,0.547,0.018,0.652,0.274 c0.104,0.256-0.018,0.547-0.274,0.652c-0.611,0.25-1.233,0.59-1.892,0.95c-0.382,0.209-0.778,0.425-1.195,0.638 C23.904,51.023,23.827,51.041,23.75,51.041z"/><path fill="#1f212b" d="M19.466,52.364c-1.739,0-2.542-0.854-2.586-0.903c-0.186-0.204-0.17-0.52,0.034-0.706 c0.202-0.183,0.516-0.171,0.702,0.029c0.056,0.057,1.13,1.106,3.726,0.241c0.117-0.039,0.232-0.079,0.344-0.12 c0.262-0.095,0.547,0.037,0.642,0.297c0.095,0.259-0.038,0.546-0.297,0.642c-0.123,0.045-0.247,0.088-0.374,0.13 C20.806,52.259,20.078,52.364,19.466,52.364z"/><path fill="#1f212b" d="M19.466,57.364c-1.739,0-2.542-0.854-2.586-0.903c-0.186-0.204-0.17-0.521,0.034-0.706 c0.202-0.184,0.516-0.171,0.702,0.029c0.053,0.053,1.126,1.107,3.726,0.241c1.297-0.433,2.339-1.002,3.346-1.552 c0.373-0.204,0.732-0.4,1.087-0.58c0.246-0.125,0.546-0.025,0.672,0.221c0.125,0.246,0.026,0.547-0.221,0.672 c-0.345,0.175-0.695,0.366-1.058,0.564c-0.997,0.545-2.127,1.163-3.509,1.624C20.807,57.258,20.079,57.364,19.466,57.364z"/><path fill="#1f212b" d="M22.875,61.461c-0.191,0-0.374-0.109-0.457-0.295c-0.113-0.252,0-0.548,0.251-0.661 c0.728-0.327,1.38-0.684,2.011-1.028c0.375-0.205,0.737-0.402,1.093-0.583c0.246-0.124,0.547-0.025,0.672,0.221 c0.125,0.247,0.025,0.548-0.221,0.672c-0.348,0.176-0.7,0.368-1.065,0.567c-0.647,0.354-1.317,0.721-2.081,1.063 C23.013,61.447,22.944,61.461,22.875,61.461z"/><path fill="#1f212b" d="M19.5,62.364c-0.274,0-0.498-0.222-0.5-0.496c-0.002-0.276,0.22-0.502,0.497-0.504 c0.562-0.004,1.183-0.118,1.845-0.339c0.263-0.088,0.546,0.056,0.633,0.316c0.087,0.262-0.055,0.545-0.316,0.633 c-0.763,0.254-1.487,0.385-2.155,0.39C19.502,62.364,19.501,62.364,19.5,62.364z"/><path fill="#1f212b" d="M21.5,66c-0.209,0-0.404-0.133-0.474-0.342c-0.087-0.262,0.054-0.545,0.316-0.633 c1.297-0.433,2.339-1.002,3.346-1.552c0.373-0.204,0.732-0.4,1.087-0.58c0.246-0.124,0.546-0.025,0.672,0.221 c0.125,0.246,0.026,0.547-0.221,0.672c-0.345,0.175-0.695,0.366-1.058,0.564c-0.997,0.545-2.127,1.163-3.509,1.624 C21.605,65.992,21.552,66,21.5,66z"/><path fill="#1f212b" d="M23.5,70c-0.209,0-0.404-0.133-0.474-0.342c-0.087-0.262,0.054-0.545,0.316-0.633 c1.297-0.433,2.339-1.002,3.346-1.552c0.373-0.204,0.732-0.4,1.087-0.58c0.246-0.125,0.546-0.026,0.672,0.221 c0.125,0.246,0.026,0.547-0.221,0.672c-0.345,0.175-0.695,0.366-1.058,0.564c-0.997,0.545-2.127,1.163-3.509,1.624 C23.605,69.992,23.552,70,23.5,70z"/><path fill="#1f212b" d="M26.788,72.5c-0.192,0-0.375-0.111-0.458-0.298c-0.111-0.253,0.003-0.548,0.255-0.659 c0.77-0.34,1.453-0.714,2.114-1.076l0.438-0.238c0.244-0.132,0.546-0.041,0.678,0.201c0.131,0.243,0.041,0.547-0.202,0.678 l-0.433,0.236c-0.68,0.372-1.383,0.757-2.19,1.113C26.923,72.486,26.855,72.5,26.788,72.5z"/><path fill="#1f212b" d="M59.183,62.5c-0.049,0-0.099-0.007-0.148-0.022c-0.264-0.082-0.411-0.362-0.329-0.626 c0.709-2.278,0.199-4.24-1.559-5.998c-2.315-2.315-2.672-5.181-2.234-7.09c0.062-0.27,0.333-0.437,0.599-0.375 c0.269,0.062,0.438,0.33,0.375,0.599c-0.378,1.649-0.061,4.132,1.966,6.16c2.017,2.017,2.625,4.372,1.807,7.002 C59.594,62.362,59.396,62.5,59.183,62.5z"/><path fill="#1f212b" d="M58,82.5c-0.128,0-0.256-0.049-0.354-0.146c-0.195-0.194-0.195-0.51-0.002-0.705l0,0 c0.069-0.071,1.675-1.768-0.061-4.371C55.466,74.101,53.44,69.913,56.6,65.7c0.438-0.584,0.82-1.156,1.136-1.701 c0.138-0.239,0.443-0.321,0.684-0.182c0.239,0.139,0.32,0.444,0.182,0.684c-0.336,0.578-0.74,1.184-1.201,1.799 c-2.768,3.69-1.04,7.34,1.016,10.423c2.202,3.303-0.04,5.608-0.063,5.631C58.256,82.451,58.128,82.5,58,82.5z"/><path fill="#1f212b" d="M61.5,44c-0.058,0-0.117-0.01-0.175-0.032c-0.259-0.097-0.39-0.385-0.293-0.643 c0.743-1.989,0.53-4.198-2.922-8.513c-0.172-0.216-0.137-0.53,0.078-0.703c0.217-0.172,0.53-0.137,0.703,0.078 c3.248,4.061,4.111,6.721,3.078,9.487C61.894,43.876,61.703,44,61.5,44z"/><path fill="#1f212b" d="M61.5,56c-0.147,0-0.292-0.064-0.391-0.188c-3.62-4.525-2.243-7.215-1.238-9.179l0.182-0.357 c0.124-0.247,0.424-0.346,0.671-0.224c0.247,0.124,0.347,0.424,0.224,0.671l-0.186,0.366c-0.978,1.912-2.087,4.078,1.129,8.098 c0.172,0.216,0.137,0.53-0.078,0.703C61.72,55.964,61.61,56,61.5,56z"/><path fill="#1f212b" d="M62.78,81c-0.128,0-0.256-0.049-0.354-0.146c-0.18-0.18-0.194-0.463-0.042-0.659 c0.042-0.104,0.408-1.288-2.302-5.42c-2.149-4.29-1.054-6.469,1.002-9.552c0.158-0.237,0.316-0.468,0.471-0.694 c1.504-2.197,2.591-3.785,0.885-6.792c-0.136-0.24-0.052-0.546,0.188-0.682c0.24-0.139,0.545-0.052,0.682,0.188 c2.014,3.551,0.584,5.64-0.93,7.851c-0.153,0.224-0.309,0.451-0.464,0.685c-1.904,2.856-2.888,4.66-0.969,8.499 c3.221,4.904,2.488,6.275,2.186,6.577C63.036,80.951,62.908,81,62.78,81z"/><path fill="#1f212b" d="M73.542,65.857c-1.649,0-4.027-0.782-6.374-4.303l1.664-1.109c3.157,4.736,5.826,3.214,5.852,3.196 l1.027,1.717C75.692,65.369,74.844,65.857,73.542,65.857z"/><path fill="#1f212b" d="M73.107,72.496c-0.219-0.021-5.413-0.552-8.711-5.977l1.709-1.039 c2.757,4.534,7.008,5.006,7.188,5.024L73.107,72.496z"/><path fill="#1f212b" d="M68.448,78.875c-0.229,0-0.459-0.078-0.647-0.238c-0.421-0.357-0.472-0.988-0.115-1.409 c0.089-0.105,8.932-10.717,7.022-24.086c-1.889-13.221-10.913-16.158-11.003-16.186c-0.509-0.158-0.805-0.686-0.674-1.202 c0.13-0.516,0.642-0.84,1.166-0.734l8.844,1.769c0.164-1.508,0.828-3.899,3.341-4.737c0.264-0.087,0.553-0.062,0.798,0.072 c0.244,0.134,0.421,0.364,0.489,0.634c1.918,7.674,4.47,9.822,6.272,10.272c0.536,0.134,0.861,0.677,0.728,1.213 c-0.134,0.536-0.679,0.863-1.213,0.728c-3.228-0.807-5.651-4.229-7.389-10.449c-1.219,1.178-1.071,3.376-1.069,3.403 c0.023,0.312-0.1,0.617-0.334,0.824c-0.235,0.207-0.552,0.292-0.859,0.231l-4.47-0.894c2.93,2.557,6.254,7.071,7.354,14.772 c2.041,14.282-7.088,25.206-7.478,25.664C69.012,78.755,68.73,78.875,68.448,78.875z"/><path fill="#1f212b" d="M82.231,52.364c-0.679,0-1.413-0.13-2.192-0.39c-1.384-0.462-2.515-1.08-3.512-1.626 c-0.659-0.36-1.282-0.701-1.894-0.951c-0.256-0.104-0.378-0.396-0.274-0.652c0.105-0.256,0.396-0.377,0.652-0.274 c0.664,0.271,1.311,0.625,1.996,0.999c1.008,0.551,2.05,1.122,3.349,1.554c0.912,0.304,1.734,0.403,2.445,0.299 c0.276-0.043,0.527,0.147,0.568,0.42c0.041,0.273-0.147,0.528-0.421,0.568C82.717,52.348,82.478,52.364,82.231,52.364z"/><path fill="#1f212b" d="M78.116,56.125c-0.075,0-0.151-0.017-0.223-0.053c-0.481-0.239-0.932-0.486-1.366-0.724 c-0.362-0.197-0.711-0.389-1.056-0.563c-0.247-0.125-0.345-0.426-0.221-0.672c0.125-0.245,0.426-0.344,0.672-0.221 c0.354,0.179,0.712,0.375,1.084,0.578c0.423,0.231,0.863,0.472,1.333,0.706c0.247,0.123,0.348,0.423,0.224,0.67 C78.477,56.023,78.3,56.125,78.116,56.125z"/><path fill="#1f212b" d="M82.231,57.364c-0.612,0-1.34-0.106-2.192-0.39c-0.261-0.087-0.439-0.381-0.354-0.642 c0.085-0.262,0.329-0.413,0.591-0.334c2.69,0.896,3.761-0.17,3.805-0.216c0.19-0.196,0.505-0.209,0.705-0.021 c0.199,0.188,0.214,0.496,0.031,0.698C84.773,56.51,83.97,57.364,82.231,57.364z"/><path fill="#1f212b" d="M78.875,61.484c-0.068,0-0.137-0.014-0.203-0.043c-0.788-0.352-1.477-0.728-2.142-1.092 c-0.362-0.197-0.712-0.389-1.057-0.563c-0.247-0.125-0.345-0.426-0.221-0.672c0.125-0.245,0.426-0.343,0.672-0.221 c0.354,0.18,0.713,0.376,1.085,0.579c0.648,0.354,1.318,0.721,2.07,1.055c0.252,0.112,0.366,0.408,0.253,0.66 C79.249,61.374,79.066,61.484,78.875,61.484z"/><path fill="#1f212b" d="M82.198,62.364c-0.001,0-0.002,0-0.004,0c-0.574-0.005-1.191-0.103-1.834-0.289 c-0.265-0.078-0.417-0.355-0.34-0.62c0.077-0.266,0.354-0.412,0.62-0.341c0.554,0.162,1.08,0.246,1.562,0.25 c0.276,0.002,0.499,0.228,0.496,0.504C82.695,62.144,82.472,62.364,82.198,62.364z"/><path fill="#1f212b" d="M80.198,66c-0.052,0-0.105-0.008-0.158-0.025c-1.382-0.461-2.512-1.079-3.509-1.624 c-0.363-0.198-0.713-0.39-1.058-0.564c-0.247-0.125-0.345-0.426-0.221-0.672c0.125-0.245,0.426-0.343,0.672-0.221 c0.354,0.18,0.714,0.376,1.086,0.579c1.007,0.551,2.049,1.12,3.346,1.553c0.262,0.088,0.403,0.371,0.316,0.633 C80.602,65.867,80.407,66,80.198,66z"/><path fill="#1f212b" d="M78.198,70c-0.052,0-0.105-0.008-0.158-0.025c-1.382-0.461-2.512-1.079-3.509-1.624 c-0.363-0.198-0.713-0.39-1.058-0.564c-0.247-0.125-0.345-0.426-0.221-0.672c0.125-0.246,0.427-0.344,0.672-0.221 c0.354,0.18,0.714,0.376,1.086,0.579c1.007,0.551,2.049,1.12,3.346,1.553c0.262,0.088,0.403,0.371,0.316,0.633 C78.602,69.867,78.407,70,78.198,70z"/><path fill="#1f212b" d="M74.91,72.5c-0.067,0-0.136-0.014-0.202-0.043c-0.81-0.357-1.513-0.742-2.194-1.115l-0.429-0.234 c-0.243-0.131-0.333-0.435-0.202-0.678c0.132-0.242,0.436-0.333,0.678-0.201l0.434,0.236c0.662,0.362,1.347,0.737,2.118,1.078 c0.252,0.111,0.367,0.406,0.255,0.659C75.286,72.389,75.103,72.5,74.91,72.5z"/><path fill="#1f212b" d="M76,44.996c-0.079,0-0.158-0.019-0.232-0.058c-0.938-0.494-1.744-0.843-2.625-0.941 c-0.274-0.031-0.472-0.278-0.442-0.552c0.03-0.274,0.28-0.469,0.552-0.442c1.098,0.122,2.081,0.577,2.98,1.05 c0.245,0.128,0.338,0.431,0.209,0.675C76.353,44.898,76.179,44.996,76,44.996z"/><path fill="#1f212b" d="M82.231,47.364c-0.612,0-1.34-0.105-2.192-0.39c-0.539-0.18-1.071-0.393-1.625-0.65 c-0.25-0.117-0.359-0.414-0.243-0.664s0.413-0.361,0.664-0.243c0.52,0.242,1.018,0.441,1.521,0.609 c2.612,0.869,3.682-0.197,3.727-0.243c0.19-0.196,0.505-0.207,0.705-0.021c0.199,0.187,0.214,0.497,0.031,0.699 C84.773,46.51,83.97,47.364,82.231,47.364z"/></svg>